<svg width="160" height="40" viewBox="0 0 160 40" xmlns="http://www.w3.org/2000/svg" role="img" aria-labelledby="title desc">
  <title id="title">Jlike</title>
  <desc id="desc">Jlike mail logo</desc>
  <defs>
    <linearGradient id="g" x1="0%" y1="0%" x2="100%" y2="100%">
      <stop offset="0%" stop-color="#0b1f3a"/>
      <stop offset="100%" stop-color="#1f8f62"/>
    </linearGradient>
  </defs>
  <rect x="0" y="2" width="42" height="36" rx="10" fill="url(#g)"/>
  <path d="M22 10c-3.5 0-6 2.4-6 6.2 0 3.3 2 5.8 5.3 6l-.3 1.1c-.5 1.8-1.7 2.6-3.4 2.6-.7 0-1.4-.2-2-.4l-1.3 4c1.1.5 2.4.8 3.8.8 4 0 6.6-2.1 7.7-6l2.2-8.2c.2-.7.3-1.4.3-2 0-3.7-2.4-6.1-6.3-6.1Zm.4 4.1c1.3 0 2.1.9 2.1 2.2 0 .3-.1.7-.2 1.2l-.3 1.1c-.6 1.8-1.6 2.5-2.8 2.4-1.3-.1-2-.9-2-2.4 0-2.4 1.2-4.5 3.2-4.5Z" fill="#ffffff"/>
  <text x="54" y="27" fill="#0b1f3a" font-family="Segoe UI, 'Noto Sans JP', Arial, sans-serif" font-size="20" font-weight="700" letter-spacing="0.5">Jlike</text>
</svg>
